<?xml version="1.0" encoding="utf-8"?>
<!-- Generator: Adobe Illustrator 15.1.0, SVG Export Plug-In  -->
<!DOCTYPE svg PUBLIC "-//W3C//DTD SVG 1.0//EN" "http://www.w3.org/TR/2001/REC-SVG-20010904/DTD/svg10.dtd" [
	<!ENTITY ns_flows "http://ns.adobe.com/Flows/1.0/">
]>
<svg version="1.0"
	 xmlns="http://www.w3.org/2000/svg" xmlns:xlink="http://www.w3.org/1999/xlink" xmlns:a="http://ns.adobe.com/AdobeSVGViewerExtensions/3.0/"
	 x="0px" y="0px" width="613px" height="345px" viewBox="-0.5 -0.375 613 345"
	 overflow="visible" enable-background="new -0.5 -0.375 613 345" xml:space="preserve">
<defs>
</defs>
<rect fill="#EDEDED" width="612" height="344.25"/>
<path fill="#FFFFFF" d="M209.312,75.438v193.375h193.375V75.438H209.312z M363.654,168.936c-0.699,4.318-4.477,8.911-11.729,10.727
	v0.188c7.252,1.527,10.406,4.392,9.235,11.189c-1.304,7.499-6.043,14.926-18.96,14.926h-33.916c-8.961,0-15.348-4.834-14.106-14.504
	h22.015c-0.143,0,0.5,2.904,2.157,3.867c1.657,1.043,4.551,1.214,8.966,1.214c9.848,0,11.471-2.793,11.953-5.288
	c0.553-3.348-2.177-4.36-7.61-4.36l-10.458-0.012l2.191-12.37l11.435-0.021c4.792,0,6.177-1.721,6.491-3.628
	c0.392-2.303-0.643-5.277-8.956-5.277c-7.284,0-8.31,1.704-10.046,1.704h-22.506c1.601-4.835,6.043-9.669,12.842-9.669h-16.638
	l-9.121,48.344h-26.25l9.121-48.344h-21.778v-19.338h77.449l-3.29,17.334c3.814-0.479,7.699-1.231,12.399-1.231
	C357.705,154.387,365.58,158.323,363.654,168.936z"/>
</svg>
