<?xml version="1.0" encoding="UTF-8" standalone="no"?>
<svg
   xmlns:dc="http://purl.org/dc/elements/1.1/"
   xmlns:cc="http://creativecommons.org/ns#"
   xmlns:rdf="http://www.w3.org/1999/02/22-rdf-syntax-ns#"
   xmlns:svg="http://www.w3.org/2000/svg"
   xmlns="http://www.w3.org/2000/svg"
   xmlns:sodipodi="http://sodipodi.sourceforge.net/DTD/sodipodi-0.dtd"
   xmlns:inkscape="http://www.inkscape.org/namespaces/inkscape"
   width="40"
   height="40"
   viewBox="0 2 40 40"
   overflow="visible"
   enable-background="new 0 2 210 50"
   id="svg3484"
   version="1.1"
   inkscape:version="0.91 r13725"
   sodipodi:docname="t3Logo.svg"
   style="overflow:visible">
  <metadata
     id="metadata3492">
    <rdf:RDF>
      <cc:Work
         rdf:about="">
        <dc:format>image/svg+xml</dc:format>
        <dc:type
           rdf:resource="http://purl.org/dc/dcmitype/StillImage" />
        <dc:title></dc:title>
      </cc:Work>
    </rdf:RDF>
  </metadata>
  <defs
     id="defs3490" />
  <sodipodi:namedview
     pagecolor="#ffffff"
     bordercolor="#666666"
     borderopacity="1"
     objecttolerance="10"
     gridtolerance="10"
     guidetolerance="10"
     inkscape:pageopacity="0"
     inkscape:pageshadow="2"
     inkscape:window-width="640"
     inkscape:window-height="480"
     id="namedview3488"
     showgrid="false"
     fit-margin-top="0"
     fit-margin-left="0"
     fit-margin-right="0"
     fit-margin-bottom="0"
     inkscape:zoom="1.3047619"
     inkscape:cx="105"
     inkscape:cy="20"
     inkscape:window-x="1280"
     inkscape:window-y="129"
     inkscape:window-maximized="0"
     inkscape:current-layer="svg3484" />
  <path
     d="M 0,2 0,42 40,42 40,2 0,2 Z m 32.06,19.34 c -0.146,0.892 -0.586,1.843 -2.294,2.22 l 0,0.038 c 1.317,0.316 2.02,1.147 1.776,2.553 -0.27,1.553 -1.382,2.8 -4.053,3.33 l -7.017,0 c -1.852,-0.4 -3.177,-1.358 -2.92,-3.667 l 4.554,0 c -0.026,0.395 0.106,0.694 0.446,0.893 0.345,0.216 0.942,0.298 1.855,0.298 2.037,0 2.375,-0.555 2.475,-1.07 0.113,-0.694 -0.45,-0.89 -1.576,-0.89 l -2.163,0.003 0.454,-2.556 2.367,-0.002 c 0.988,0 1.273,-0.355 1.34,-0.75 0.082,-0.475 -0.13,-0.873 -1.852,-0.873 -1.508,0 -1.72,0.12 -2.08,0.573 l -4.65,0 c 0.328,-1.324 1.25,-2.155 2.655,-2.65 l -3.442,0 -1.89,10.688 -5.43,0 1.89,-10.688 -4.56,0 0,-4.256 16.075,0 -0.68,3.82 c 0.79,-0.1 1.658,-0.138 2.63,-0.138 4.79,0 6.487,0.93 6.09,3.127 z"
     id="path3486"
     inkscape:connector-curvature="0"
     style="fill:#333333" />
</svg>
